#define dwindle_width 14
#define dwindle_height 14
static unsigned char dwindle_bits[] = {
   0x00, 0x00, 0x00, 0x00, 0xfe, 0x0f, 0x42, 0x08, 0x42, 0x08, 0x42, 0x08,
   0xc2, 0x0f, 0x42, 0x09, 0x42, 0x09, 0x42, 0x0f, 0x42, 0x09, 0x42, 0x09,
   0xfe, 0x0f, 0x00, 0x00 };
