#define fairv_width 14
#define fairv_height 14
static unsigned char fairv_bits[] = {
   0x00, 0x00, 0x00, 0x00, 0xfe, 0x0f, 0x02, 0x09, 0x02, 0x09, 0xfe, 0x09,
   0x02, 0x09, 0x02, 0x0f, 0x02, 0x09, 0xfe, 0x09, 0x02, 0x09, 0x02, 0x09,
   0xfe, 0x0f, 0x00, 0x00 };
