#define fairh_width 14
#define fairh_height 14
static unsigned char fairh_bits[] = {
   0x00, 0x00, 0x00, 0x00, 0xfe, 0x0f, 0x12, 0x09, 0x12, 0x09, 0x12, 0x09,
   0x12, 0x09, 0x12, 0x09, 0x12, 0x09, 0xfe, 0x0f, 0x42, 0x08, 0x42, 0x08,
   0xfe, 0x0f, 0x00, 0x00 };
