#define floating_width 14
#define floating_height 14
static unsigned char floating_bits[] = {
   0x00, 0x00, 0x00, 0x00, 0xf8, 0x0f, 0x08, 0x08, 0x08, 0x08, 0x08, 0x08,
   0x08, 0x08, 0x08, 0x08, 0x3e, 0x08, 0x22, 0x08, 0xe2, 0x0f, 0x22, 0x00,
   0x3e, 0x00, 0x00, 0x00 };
