#define magnifier_width 14
#define magnifier_height 14
static unsigned char magnifier_bits[] = {
   0x00, 0x00, 0x00, 0x00, 0xfe, 0x0f, 0x02, 0x08, 0x02, 0x08, 0xfa, 0x0b,
   0x0a, 0x0a, 0x0a, 0x0a, 0x0a, 0x0a, 0xfa, 0x0b, 0x02, 0x08, 0x02, 0x08,
   0xfe, 0x0f, 0x00, 0x00 };
