#define max_width 14
#define max_height 14
static unsigned char max_bits[] = {
   0x00, 0x00, 0x00, 0x00, 0xfe, 0x0f, 0x06, 0x0c, 0x0a, 0x0a, 0x12, 0x09,
   0xa2, 0x08, 0x42, 0x08, 0xa2, 0x08, 0x12, 0x09, 0x0a, 0x0a, 0x06, 0x0c,
   0xfe, 0x0f, 0x00, 0x00 };
