#define spiral_width 14
#define spiral_height 14
static unsigned char spiral_bits[] = {
   0x00, 0x00, 0x00, 0x00, 0xfe, 0x0f, 0x42, 0x08, 0x42, 0x08, 0x42, 0x08,
   0xc2, 0x0f, 0x42, 0x0a, 0x42, 0x0a, 0xc2, 0x0b, 0x42, 0x0a, 0x42, 0x0a,
   0xfe, 0x0f, 0x00, 0x00 };
