#define tilebottom_width 14
#define tilebottom_height 14
static unsigned char tilebottom_bits[] = {
   0x00, 0x00, 0x00, 0x00, 0xfe, 0x0f, 0x02, 0x08, 0x02, 0x08, 0x02, 0x08,
   0x02, 0x08, 0xfe, 0x0f, 0x12, 0x09, 0x12, 0x09, 0x12, 0x09, 0x12, 0x09,
   0xfe, 0x0f, 0x00, 0x00 };
