#define tile_width 14
#define tile_height 14
static unsigned char tile_bits[] = {
   0x00, 0x00, 0x00, 0x00, 0xfe, 0x0f, 0x42, 0x08, 0x42, 0x08, 0xc2, 0x0f,
   0x42, 0x08, 0x42, 0x08, 0x42, 0x08, 0xc2, 0x0f, 0x42, 0x08, 0x42, 0x08,
   0xfe, 0x0f, 0x00, 0x00 };
