#define tileleft_width 14
#define tileleft_height 14
static unsigned char tileleft_bits[] = {
   0x00, 0x00, 0x00, 0x00, 0xfe, 0x0f, 0x42, 0x08, 0x42, 0x08, 0x7e, 0x08,
   0x42, 0x08, 0x42, 0x08, 0x42, 0x08, 0x7e, 0x08, 0x42, 0x08, 0x42, 0x08,
   0xfe, 0x0f, 0x00, 0x00 };
